#!OML:ASF E:\emotionWalksFemale\Project 1\Capture day 1\Session 1\Female1.ASF
:FULLY-SPECIFIED
:DEGREES
2566
root 0.330133 15.2233 39.2522 133.539 87.6215 494.98
lowerback 9.87456 1.2839 -1.72056
upperback -2.43538 1.51746 0.295612
thorax -8.18728 0.831821 1.0268
lowerneck -7.5693 -2.6538 -4.80383
upperneck 13.9701 -3.05921 1.52874
head 5.56067 -1.58345 1.05585
rclavicle 6.67171e-015 4.57205e-015
rhumerus -36.1889 6.07391 -85.3215
rradius 38.5933
rwrist 10.5437
rhand -4.29293 -49.9593
rfingers 7.12502
rthumb 21.4726 -438.789
lclavicle 6.67171e-015 4.57205e-015
lhumerus -39.3557 -3.69273 87.7946
lradius 51.4307
lwrist -7.65409
lhand -9.12273 -25.969
lfingers 7.12502
lthumb 16.8283 3.32183
rfemur -23.7397 0.745229 16.6077
rtibia 48.4465
rfoot -14.6663 -27.0666
rtoes -7.17283
lfemur -1.1193 -16.2057 -33.0026
ltibia 22.9397
lfoot -17.4425 16.1199
ltoes 0.222428
2567
root 0.440613 15.2153 39.2772 141.118 87.1651 502.64
lowerback 9.8638 1.24648 -1.88931
upperback -2.36233 1.45014 0.349439
thorax -8.10635 0.807737 1.19127
lowerneck -7.56591 -2.78042 -5.03607
upperneck 13.8918 -3.22951 1.71782
head 5.54841 -1.66563 1.14068
rclavicle 8.21229e-015 -5.36719e-015
rhumerus -36.1235 5.9993 -85.1103
rradius 38.7819
rwrist 10.5114
rhand -4.35437 -50.5217
rfingers 7.12502
rthumb 21.4136 -439.358
lclavicle 8.21229e-015 -5.36719e-015
lhumerus -38.9751 -4.18359 88.3721
lradius 52.1809
lwrist -7.50695
lhand -9.18934 -26.9059
lfingers 7.12502
lthumb 16.7642 2.3903
rfemur -23.9696 1.97967 16.2139
rtibia 46.2025
rfoot -14.6274 -27.3645
rtoes -8.46753
lfemur -0.389404 -16.2151 -33.0447
ltibia 22.6028
lfoot -17.4621 15.5537
ltoes 0.684676
2568
root 0.553878 15.2037 39.3022 143.47 86.6954 505.09
lowerback 9.82543 1.24083 -2.14303
upperback -2.27431 1.41027 0.337963
thorax -7.99466 0.798674 1.33038
lowerneck -7.58459 -2.85499 -5.16545
upperneck 13.8649 -3.31744 1.74995
head 5.54936 -1.7129 1.16515
rclavicle -5.55355e-015 -1.98785e-015
rhumerus -36.0787 6.01536 -84.9724
rradius 38.9884
rwrist 10.2717
rhand -4.27983 -50.8659
rfingers 7.12502
rthumb 21.4852 -439.694
lclavicle -5.55355e-015 -1.98785e-015
lhumerus -38.264 -5.37909 89.0573
lradius 52.7793
lwrist -6.65265
lhand -9.44879 -26.2843
lfingers 7.12502
lthumb 16.5144 3.03289
rfemur -24.1226 3.1425 15.6185
rtibia 43.8765
rfoot -14.0636 -27.4802
rtoes -11.3473
lfemur 0.364475 -16.2686 -33.261
ltibia 22.2886
lfoot -17.6547 15.0078
ltoes 2.01604
2569
root 0.66902 15.1947 39.3269 145.047 86.204 506.67
lowerback 9.68435 1.23224 -2.35393
upperback -2.25578 1.37081 0.273765
thorax -7.89567 0.786897 1.39046
lowerneck -7.39966 -2.93157 -5.2391
upperneck 13.8177 -3.42293 1.77538
head 5.50876 -1.76611 1.18004
rclavicle 2.60781e-014 -4.77083e-015
rhumerus -36.1566 6.13586 -84.9484
rradius 39.1843
rwrist 10.1798
rhand -3.91986 -50.7301
rfingers 7.12502
rthumb 21.8309 -439.519
lclavicle 2.60781e-014 -4.77083e-015
lhumerus -38.2392 -6.14064 89.6205
lradius 53.9454
lwrist -6.37809
lhand -9.55214 -25.1291
lfingers 7.12502
lthumb 16.4149 4.19641
rfemur -24.2436 4.4981 14.9265
rtibia 41.4855
rfoot -14.0112 -27.4948
rtoes -12.579
lfemur 0.983427 -16.1677 -33.448
ltibia 22.0287
lfoot -17.7748 14.4419
ltoes 1.81369
2570
root 0.783978 15.1881 39.3531 148.832 85.7066 510.588
lowerback 9.77718 1.18094 -2.26314
upperback -2.27413 1.30132 0.141393
thorax -7.96012 0.745922 1.20905
lowerneck -7.14776 -3.01511 -5.20628
upperneck 13.6921 -3.57993 1.96126
head 5.43449 -1.82864 1.22544
rclavicle 6.63444e-015 1.19271e-015
rhumerus -36.3109 6.03311 -85.0609
rradius 39.3002
rwrist 10.3243
rhand -3.49036 -50.5902
rfingers 7.12502
rthumb 22.2433 -439.33
lclavicle 6.63444e-015 1.19271e-015
lhumerus -38.124 -7.05654 89.9779
lradius 54.8324
lwrist -6.1308
lhand -9.75557 -24.8731
lfingers 7.12502
lthumb 16.219 4.46839
rfemur -24.0903 6.38816 14.3001
rtibia 39.039
rfoot -14.938 -27.575
rtoes -11.2121
lfemur 1.7471 -16.0113 -33.4748
ltibia 21.7561
lfoot -17.6254 14.1917
ltoes -1.5574
2571
root 0.897891 15.1807 39.3782 151.576 85.135 513.465
lowerback 9.96425 1.17569 -2.4019
upperback -2.31147 1.26952 0.11935
thorax -8.11025 0.738111 1.2656
lowerneck -7.0861 -3.11085 -5.23712
upperneck 13.6511 -3.72651 2.08419
head 5.41938 -1.89352 1.25941
rclavicle -7.59109e-015 1.19271e-015
rhumerus -36.5453 5.94254 -84.9477
rradius 39.5598
rwrist 10.2571
rhand -3.49933 -50.6924
rfingers 7.12502
rthumb 22.2347 -439.433
lclavicle -7.59109e-015 1.19271e-015
lhumerus -37.7876 -7.93323 90.5533
lradius 55.3358
lwrist -5.67762
lhand -9.99037 -25.6552
lfingers 7.12502
lthumb 15.9929 3.70463
rfemur -23.8873 8.43601 13.5206
rtibia 36.4979
rfoot -15.1685 -27.7824
rtoes -11.313
lfemur 2.50323 -16.1025 -33.5982
ltibia 21.5464
lfoot -17.3662 14.3249
ltoes -5.34095
